PathFileType	4	(X/Y/Z)	3_coords_data.trc
DataRate	CameraRate	NumFrames	NumMarkers	Units	OrigDataRate	OrigDataStartFrame	OrigNumFrames
30.0	30.0	5	21	m	30.0	69	78
Frame#	Time	THUMB_TIP	THUMB_IP	THUMB_MCP	THUMB_CMC	INDEX_TIP	INDEX_DIP	INDEX_PIP	INDEX_MCP	MIDDLE_TIP	MIDDLE_DIP	MIDDLE_PIP	MIDDLE_MCP	RING_TIP	RING_DIP	RING_PIP	RING_MCP	PINKY_TIP	PINKY_DIP	PINKY_PIP	PINKY_MCP	WRIST
X1	Y1	Z1	X2	Y2	Z2	X3	Y3	Z3	X4	Y4	Z4	X5	Y5	Z5	X6	Y6	Z6	X7	Y7	Z7	X8	Y8	Z8	X9	Y9	Z9	X10	Y10	Z10	X11	Y11	Z11	X12	Y12	Z12	X13	Y13	Z13	X14	Y14	Z14	X15	Y15	Z15	X16	Y16	Z16	X17	Y17	Z17	X18	Y18	Z18	X19	Y19	Z19	X20	Y20	Z20	X21	Y21	Z21
68	2.2666666666666666	-0.14542100524902343	-0.0724094009399414	0.9129769897460938	-0.15991200256347657	-0.07212030029296874	0.9364140014648438	-0.16748199462890626	-0.06681510162353516	0.9659190063476563	-0.17220700073242187	-0.04273740005493164	0.9920339965820313	-0.13306100463867188	-0.03390829849243164	0.8689520263671875	-0.15057899475097655	-0.038652099609375	0.8822069702148437	-0.16719900512695313	-0.0428046989440918	0.89914599609375	-0.1823370056152344	-0.04527289962768555	0.9338939819335937	-0.13055999755859374	-0.009514039993286132	0.8676179809570312	-0.14978599548339844	-0.013245800018310546	0.8791950073242187	-0.17120399475097656	-0.018191999435424804	0.8975850219726562	-0.18640800476074218	-0.02356220054626465	0.9340859985351563	-0.1378800048828125	0.009460169792175293	0.889625	-0.15735000610351563	0.007629889965057373	0.8944559936523437	-0.17907400512695312	0.003205019950866699	0.906010009765625	-0.19212100219726563	-0.004873710155487061	0.942114990234375	-0.149843994140625	0.024873300552368163	0.9078280029296875	-0.16594200134277343	0.025509899139404296	0.9133770141601563	-0.17977000427246093	0.02250550079345703	0.92406298828125	-0.18895599365234375	0.012804400444030762	0.9515540161132813	-0.19395799255371093	-0.020611900329589844	1.017989990234375
69	2.3	-0.14608999633789063	-0.07309349822998047	0.9127650146484375	-0.160552001953125	-0.07224600219726562	0.93647802734375	-0.16751100158691407	-0.0669802017211914	0.9658590087890625	-0.17162100219726562	-0.042585201263427734	0.9920650024414063	-0.13301499938964845	-0.034198200225830075	0.8687979736328125	-0.15070899963378906	-0.03889960098266602	0.8819979858398438	-0.16750399780273437	-0.042906200408935544	0.89889599609375	-0.18199000549316408	-0.04514839935302734	0.9338179931640626	-0.13061399841308594	-0.00979446029663086	0.8673419799804688	-0.14984300231933595	-0.013572500228881837	0.8790859985351562	-0.1712239990234375	-0.018509300231933593	0.8975239868164062	-0.18640499877929687	-0.02367970085144043	0.9334030151367188	-0.13788600158691405	0.009214360237121582	0.8892830200195313	-0.1577169952392578	0.00737375020980835	0.8941259765625	-0.17946299743652344	0.002964550018310547	0.9059669799804687	-0.19014599609375	-0.0050331101417541504	0.94156298828125	-0.1498979949951172	0.02465609931945801	0.907447998046875	-0.16619400024414063	0.025335300445556642	0.9131279907226563	-0.18010899353027343	0.02228030014038086	0.923864990234375	-0.18754499816894532	0.01275349998474121	0.9513720092773438	-0.19301300048828124	-0.02094230079650879	1.017739990234375
70	2.3333333333333335	-0.14653199768066405	-0.07385559844970703	0.9125900268554688	-0.16032499694824218	-0.07294819641113282	0.9362219848632812	-0.16772500610351562	-0.06716649627685548	0.9657999877929687	-0.17216999816894532	-0.042882499694824217	0.99160498046875	-0.13308900451660155	-0.03442110061645508	0.8687420043945312	-0.15063200378417968	-0.039080799102783205	0.8820889892578125	-0.16750999450683593	-0.04312039947509766	0.8990020141601562	-0.18215899658203125	-0.045421798706054686	0.9339390258789062	-0.1307550048828125	-0.010060199737548828	0.8672579956054688	-0.14979200744628907	-0.013823399543762207	0.8790900268554688	-0.171031005859375	-0.018625099182128905	0.897541015625	-0.18669700622558594	-0.023857099533081055	0.9333660278320313	-0.1375050048828125	0.008928970336914062	0.8894719848632813	-0.15763800048828125	0.0071672101020812985	0.8939869995117188	-0.1793419952392578	0.002791949987411499	0.905801025390625	-0.19030299377441406	-0.005239260196685791	0.9413870239257812	-0.14991799926757812	0.02447089958190918	0.9072479858398438	-0.16603599548339842	0.02522209930419922	0.9128740234375	-0.17973899841308594	0.022194400787353515	0.9236270141601562	-0.1875290069580078	0.012669899940490722	0.9512160034179687	-0.19324400329589844	-0.020871400833129883	1.0174099731445312
71	2.3666666666666667	-0.14657400512695312	-0.07456430053710937	0.9124240112304688	-0.16041200256347657	-0.0732802963256836	0.9362139892578125	-0.16776699829101563	-0.06725689697265624	0.9656950073242188	-0.17184500122070312	-0.04290679931640625	0.9915460205078125	-0.13297900390625	-0.03446780014038086	0.8687239990234376	-0.15061599731445313	-0.03912049865722656	0.8817680053710938	-0.16724600219726563	-0.043191600799560546	0.8987009887695312	-0.18203999328613282	-0.04547740173339844	0.9337009887695312	-0.13083599853515626	-0.010191399574279785	0.866989013671875	-0.1495019989013672	-0.013902999877929688	0.878916015625	-0.1712850036621094	-0.01872559928894043	0.8972329711914062	-0.18674899291992186	-0.02388249969482422	0.933219970703125	-0.13727200317382812	0.00882979965209961	0.889406982421875	-0.1577449951171875	0.007087250232696533	0.8938359985351563	-0.17949400329589843	0.002717740058898926	0.9057730102539062	-0.19113499450683594	-0.005310530185699463	0.941666015625	-0.14971200561523437	0.02440460014343262	0.9071370239257812	-0.16610099792480468	0.025165199279785156	0.9128289794921876	-0.17961300659179688	0.022111200332641603	0.9235999755859375	-0.18738200378417968	0.012586000442504883	0.9512839965820312	-0.19330299377441407	-0.020989999771118165	1.0176900024414062
72	2.4	-0.14690499877929689	-0.07494010162353516	0.9120490112304688	-0.16058999633789062	-0.07334320068359375	0.936073974609375	-0.16774600219726563	-0.06723490142822265	0.9655449829101562	-0.17208799743652345	-0.04271329879760742	0.991333984375	-0.13314300537109375	-0.034397899627685545	0.86860498046875	-0.15054800415039063	-0.039024101257324216	0.8816909790039062	-0.1675449981689453	-0.04315959930419922	0.8985479736328125	-0.18305799865722655	-0.045394001007080076	0.9338820190429687	-0.13093099975585937	-0.010215800285339355	0.8669520263671875	-0.1497790069580078	-0.013809000015258789	0.8785460205078125	-0.1709429931640625	-0.018673200607299805	0.8975120239257812	-0.18714199829101563	-0.023869699478149414	0.9331849975585937	-0.13800599670410157	0.008843649864196777	0.8887009887695313	-0.15786599731445314	0.007128200054168701	0.8935989990234375	-0.17904600524902345	0.00278206992149353	0.9062230224609376	-0.19073399353027343	-0.005268139839172363	0.9412620239257813	-0.1500169982910156	0.024386499404907228	0.9068280029296875	-0.1661320037841797	0.025119699478149415	0.9127310180664062	-0.18030099487304688	0.022063800811767578	0.9233729858398437	-0.18679200744628907	0.012707099914550782	0.951156982421875	-0.19307400512695314	-0.020846399307250976	1.017280029296875
